<svg id="Layer_1" data-name="Layer 1" xmlns="http://www.w3.org/2000/svg" viewBox="0 0 136 130"><defs><style>.cls-1{fill:#ff5b00;}.cls-2{fill:#ff9700;}.cls-3{fill:#ffce00;}</style></defs><title>pyronomelogo2</title><path class="cls-1" d="M135.29,1c-22.08,9.93-33,21.17-39.6,33.23-6.81,12.36-9.86,26.92-13.45,41.09-3.83,15.18-8.16,29.57-17,37-8.55,7.17-19.91,6.55-34.63-5.19-1.87-1.48-3.75-3.14-5.65-5s-3.67-3.6-5.52-5.62-3.55-4-5.3-6.15-3.37-4.25-5-6.5L9.22,84,9.3,84l0.1,0.07,0.09,0.06C23.39,94.32,34.56,97.25,43.44,94.31,53,91.13,58.26,81.75,63.18,70.65c4.75-10.73,9.05-22.7,18-33.84S104.78,13.88,135.29,1Z" transform="translate(-1 -1)"/><path class="cls-2" d="M86.43,11.84C87.39,19.53,79,28.09,67.62,36c-10.67,7.39-23.16,13.62-33,18.72-9.12,4.73-16.31,8.66-19,12.42s-1.17,7.82,8.59,13.51l1.21,0.69L26.73,82l1.4,0.75,1.54,0.79c-3.72-1-7-1.9-9.74-2.75s-5-1.59-7-2.32-3.57-1.39-5-2a27.67,27.67,0,0,1-3.4-1.84C-0.6,71.29.27,68.1,4.47,64.69S17.05,57,27.07,52.08c11-5.4,24.53-11.91,36.33-18.95C76.23,25.47,86.11,17.72,86.43,11.84Z" transform="translate(-1 -1)"/><path class="cls-3" d="M72.21,40.61A96.25,96.25,0,0,0,60.18,59c-2.9,5.66-5,10.7-7.27,14.66s-4.71,6.73-8.13,7.69-7.42.09-12.81-2.81l-0.2-.11-0.2-.11-0.2-.11-0.21-.11c-1.67-1.36-3.6-2.46-4.7-3.74s-1.34-2.72.16-4.84,4.87-5,11.36-9.22C44.74,55.87,55.34,49.72,72.21,40.61Z" transform="translate(-1 -1)"/></svg>