<svg id="Layer_1" data-name="Layer 1" xmlns="http://www.w3.org/2000/svg" viewBox="0 0 610 130"><defs><style>.cls-1{fill:#fff;}.cls-2{fill:#ff5b00;}.cls-3{fill:#ff9700;}.cls-4{fill:#ffce00;}</style></defs><title>PyronomeLogo</title><path class="cls-1" d="M590.68,49.54c16.76,0,22.95,6.65,19.33,16.7-3.14,8.75-12.5,16.47-31.37,16.47-4.09,0-9.07-.63-11.86-2.22l-2.08,5.8c-2.47,6.86.51,10.35,10.93,10.35,11.92,0,22.09-4.12,24.67-11a10.54,10.54,0,0,1,.6,8c-2.7,7.49-15.21,11.93-28.49,11.93-17.26,0-25.3-6.65-21.31-17.74l7.4-20.59C562.48,56.19,573.92,49.54,590.68,49.54ZM597,66.23c1.75-4.86-.38-8.26-9.57-8.26-9.93,0-14,4-16.45,10.89l-1.22,3.39a46.39,46.39,0,0,0,10.52,1.46C590.69,73.71,595.27,71,597,66.23Z" transform="translate(-1 0)"/><path class="cls-1" d="M534.76,49.54c12.55,0,22.2,5.28,17.9,17.22l-13.78,38.33s-13-.21-10.87-6l11.12-30.94c2.55-7.08-1.35-10-9.05-10-7.07,0-15.18,3.16-17,7.91L501.2,99.06c-1.06,3-4.86,4.46-8.4,5.23-3-.77-5.7-2.27-4.64-5.23L499.44,67.7c2.31-6.44-.19-9.5-10.12-9.5a53.38,53.38,0,0,0-14,1.91l-14,39c-2.16,6-15.21,6-15.21,6L466,49.75a20.7,20.7,0,0,0,8.29,2.12c6.21,0,12.88-2.33,19.84-2.33s14.36,1.49,17.3,5.07C513.05,53.67,520.74,49.54,534.76,49.54Z" transform="translate(-1 0)"/><path class="cls-1" d="M431.69,49.54c19.37,0,26,6.65,22.06,17.74l-7.4,20.59c-4,11.09-15.44,17.74-34.81,17.74S385.62,99,389.61,87.87L397,67.28C401,56.19,412.44,49.54,431.69,49.54Zm8.45,19.33C442.6,62,441.44,58,428.66,58s-16.72,4-19.19,10.89l-6.26,17.42c-2.47,6.86-1.3,10.88,11.37,10.88s16.83-4,19.3-10.88Z" transform="translate(-1 0)"/><path class="cls-1" d="M372.54,49.54c12,0,23.58,3.5,18.87,16.58l-14,39s-13-.21-10.87-6L377.82,67.7c2.16-6-.19-9.5-10.12-9.5A55.82,55.82,0,0,0,353.77,60l-14,39.07c-2.16,6-15.21,6-15.21,6l19.89-55.34a19.62,19.62,0,0,0,8.84,2C359.35,51.76,365.72,49.54,372.54,49.54Z" transform="translate(-1 0)"/><path class="cls-1" d="M310.06,49.54c19.37,0,26,6.65,22.06,17.74l-7.4,20.59c-4,11.09-15.44,17.74-34.81,17.74S264,99,268,87.87l7.4-20.59C279.37,56.19,290.81,49.54,310.06,49.54Zm8.45,19.33C321,62,319.81,58,307,58s-16.72,4-19.19,10.89l-6.26,17.42c-2.47,6.86-1.3,10.88,11.37,10.88s16.83-4,19.3-10.88Z" transform="translate(-1 0)"/><path class="cls-1" d="M263.55,49.54c8.69,0,14.66,2.74,12.34,9.2-1.39,3.9-5.35,7-7.82,9,2.24-6.23-2.82-9.07-10-9.07A51.66,51.66,0,0,0,247,60.11L233,99c-2.2,6.13-15.24,6.13-15.24,6.13l19.85-55.22a17.35,17.35,0,0,0,7.88,1.89C250.83,51.76,256.46,49.54,263.55,49.54Z" transform="translate(-1 0)"/><path class="cls-1" d="M214.61,59.26c4.63-9.08,15.22-9.18,17.2-9.18-3.45,6.84-6.71,13.82-10,20.69-6.87,13.94-20.25,23.87-29.31,28.72l-6,3.17c-10.13,5.39-17.89,9.71-20.47,16.89a16.73,16.73,0,0,0-.66,9.4,15.13,15.13,0,0,1-5.09,1.05c-4.72,0-9.89-2.54-6.78-11.19,3.41-9.5,13.65-15.52,24.84-21.12-6.11-3.38-11.12-13.93-8.07-26.93,1.6-6.86,3.36-13.84,4.83-20.69,0,0,10.17,0,10.71,4.74,0.47,4.54-1.67,12.25-2.89,18.07C180.26,85.77,188.31,92,188.31,92s13-6.55,19.29-19.11Z" transform="translate(-1 0)"/><path class="cls-1" d="M142.06,29.69c19.12,0,34.28,4.43,27.25,24l-0.68,1.88c-6.83,19-25.41,24.08-44.53,24.08H114.3l-7.1,19.75c-2.16,6-15.69,6-15.69,6l10.3-28.63c1.08-3,5-4.5,8.65-5.26a39.52,39.52,0,0,1,7-.75h9.81c13.15,0,23.12-2.12,28.16-16.15,4.71-13.1-3.43-16.05-16.58-16.05h-9.81s-13.53,0-11.37-6l1.75-4.85C122.08,30.21,142.06,29.69,142.06,29.69Z" transform="translate(-1 0)"/><path class="cls-2" d="M135.29,0c-22.08,9.93-33,21.17-39.6,33.23-6.81,12.36-9.86,26.92-13.45,41.09-3.83,15.18-8.16,29.57-17,37-8.55,7.17-19.91,6.55-34.63-5.19-1.87-1.48-3.75-3.14-5.65-5s-3.67-3.6-5.52-5.62-3.55-4-5.3-6.15-3.37-4.25-5-6.5L9.22,83,9.3,83l0.1,0.07,0.09,0.06C23.39,93.32,34.56,96.25,43.44,93.31,53,90.13,58.26,80.75,63.18,69.65c4.75-10.73,9.05-22.7,18-33.84S104.78,12.88,135.29,0Z" transform="translate(-1 0)"/><path class="cls-3" d="M86.43,10.84C87.39,18.53,79,27.09,67.62,35c-10.67,7.39-23.16,13.62-33,18.72-9.12,4.73-16.31,8.66-19,12.42s-1.17,7.82,8.59,13.51l1.21,0.69L26.73,81l1.4,0.75,1.54,0.79c-3.72-1-7-1.9-9.74-2.75s-5-1.59-7-2.32-3.57-1.39-5-2a27.67,27.67,0,0,1-3.4-1.84C-0.6,70.29.27,67.1,4.47,63.69S17.05,56,27.07,51.08c11-5.4,24.53-11.91,36.33-18.95C76.23,24.47,86.11,16.72,86.43,10.84Z" transform="translate(-1 0)"/><path class="cls-4" d="M72.21,39.61A96.25,96.25,0,0,0,60.18,58c-2.9,5.66-5,10.7-7.27,14.66s-4.71,6.73-8.13,7.69-7.42.09-12.81-2.81l-0.2-.11-0.2-.11-0.2-.11-0.21-.11c-1.67-1.36-3.6-2.46-4.7-3.74s-1.34-2.72.16-4.84,4.87-5,11.36-9.22C44.74,54.87,55.34,48.72,72.21,39.61Z" transform="translate(-1 0)"/></svg>